<svg width="24" height="18" viewBox="0 0 24 18" fill="none" xmlns="http://www.w3.org/2000/svg">
<path d="M14.2769 16.8503L13.2219 16.1503C13.1532 16.1045 13.097 16.0424 13.0582 15.9695C13.0193 15.8967 12.9992 15.8154 12.9994 15.7328V9.50049H10.9995V15.7328C10.9995 15.8151 10.9792 15.8961 10.9404 15.9687C10.9016 16.0413 10.8454 16.1031 10.777 16.1488L9.72201 16.8503C9.65355 16.896 9.59743 16.9578 9.55861 17.0304C9.5198 17.103 9.4995 17.184 9.49951 17.2663V17.5003C9.49951 17.6329 9.55219 17.7601 9.64595 17.8538C9.73972 17.9476 9.86689 18.0003 9.9995 18.0003H13.9994C14.132 18.0003 14.2592 17.9476 14.3529 17.8538C14.4467 17.7601 14.4994 17.6329 14.4994 17.5003V17.2678C14.4996 17.1852 14.4795 17.1039 14.4406 17.0311C14.4018 16.9582 14.3456 16.8961 14.2769 16.8503Z" fill="#1A1A1A"/>
<path d="M18.4991 6.49976H4.9995C4.72336 6.49976 4.49951 6.72361 4.49951 6.99974V7.99972C4.49951 8.27585 4.72336 8.4997 4.9995 8.4997H18.4991C18.7753 8.4997 18.9991 8.27585 18.9991 7.99972V6.99974C18.9991 6.72361 18.7753 6.49976 18.4991 6.49976Z" fill="#1A1A1A"/>
<path d="M12.4994 1.52696V0.999974H12.9994C13.132 0.999974 13.2592 0.947296 13.353 0.853531C13.4467 0.759765 13.4994 0.632592 13.4994 0.499987C13.4994 0.367382 13.4467 0.240209 13.353 0.146443C13.2592 0.0526771 13.132 0 12.9994 0H10.9995C10.8669 0 10.7397 0.0526771 10.6459 0.146443C10.5521 0.240209 10.4995 0.367382 10.4995 0.499987C10.4995 0.632592 10.5521 0.759765 10.6459 0.853531C10.7397 0.947296 10.8669 0.999974 10.9995 0.999974H11.4994V1.52696C10.4387 1.63475 9.44006 2.07816 8.64873 2.79269C7.85741 3.50723 7.3147 4.4556 7.09956 5.49985H16.8993C16.6842 4.4556 16.1415 3.50723 15.3501 2.79269C14.5588 2.07816 13.5601 1.63475 12.4994 1.52696ZM11.3495 3.57041C10.6612 3.72401 10.0487 4.11415 9.6185 4.67288C9.53781 4.77816 9.4186 4.84709 9.28709 4.86448C9.15558 4.88187 9.02255 4.84631 8.91727 4.76562C8.81198 4.68493 8.74305 4.56572 8.72566 4.43422C8.70827 4.30271 8.74383 4.16968 8.82452 4.06439C9.39819 3.31918 10.2151 2.79882 11.133 2.59393C11.1971 2.57972 11.2634 2.57827 11.328 2.58967C11.3927 2.60107 11.4545 2.62511 11.5099 2.66039C11.5653 2.69568 11.6132 2.74153 11.6509 2.79532C11.6885 2.84912 11.7152 2.90981 11.7294 2.97392C11.7437 3.03804 11.7451 3.10433 11.7337 3.169C11.7223 3.23368 11.6983 3.29547 11.663 3.35086C11.6277 3.40625 11.5818 3.45415 11.5281 3.49182C11.4743 3.52949 11.4136 3.55619 11.3495 3.57041ZM23.7491 5.33936C23.6555 5.23263 23.5401 5.14714 23.4108 5.08859C23.2815 5.03004 23.1411 4.99979 22.9991 4.99987H22.4597C22.2405 5.00102 22.0279 5.0741 21.8544 5.20788C21.6808 5.34167 21.556 5.52874 21.4992 5.74035L20.2057 10.5712H17.1213C16.7895 10.5716 16.4672 10.6823 16.2052 10.886C15.9432 11.0896 15.7565 11.3747 15.6743 11.6962L15.5318 12.2497C15.4937 12.3974 15.4899 12.5519 15.5206 12.7013C15.5514 12.8507 15.6159 12.9911 15.7093 13.1117C15.8027 13.2324 15.9224 13.33 16.0593 13.3973C16.1963 13.4645 16.3468 13.4995 16.4993 13.4996H16.5338L15.5683 17.3785C15.5525 17.4423 15.5493 17.5086 15.5591 17.5735C15.5689 17.6385 15.5914 17.7009 15.6252 17.7572C15.6591 17.8135 15.7038 17.8625 15.7567 17.9015C15.8095 17.9405 15.8696 17.9687 15.9333 17.9845C15.9729 17.9946 16.0135 17.9997 16.0543 17.9995C16.1659 17.9995 16.2742 17.9622 16.362 17.8935C16.4499 17.8248 16.5123 17.7287 16.5393 17.6205L17.5628 13.4996H21.1492L22.0622 17.608C22.0868 17.7189 22.1485 17.8181 22.237 17.8892C22.3255 17.9604 22.4356 17.9993 22.5492 17.9995C22.5858 17.9995 22.6224 17.9954 22.6582 17.9875C22.7223 17.9733 22.783 17.9466 22.8368 17.909C22.8906 17.8713 22.9364 17.8234 22.9717 17.768C23.007 17.7126 23.031 17.6508 23.0424 17.5861C23.0538 17.5215 23.0524 17.4552 23.0381 17.391L22.1562 13.4231C22.4259 13.3372 22.6658 13.1767 22.8481 12.9602C23.0304 12.7437 23.1478 12.4801 23.1866 12.1997L23.9906 6.13384C24.0095 5.99185 23.9977 5.84746 23.956 5.71042C23.9143 5.57337 23.8438 5.44685 23.7491 5.33936ZM8.28953 13.1132C8.38354 12.9926 8.44853 12.852 8.47948 12.7022C8.51043 12.5525 8.50651 12.3977 8.46803 12.2497L8.32503 11.6967C8.24308 11.3752 8.05644 11.0901 7.79453 10.8864C7.53262 10.6827 7.21036 10.572 6.87857 10.5717H3.79615L2.50268 5.74035C2.44572 5.52833 2.32056 5.34095 2.14652 5.20713C1.97249 5.0733 1.75925 5.00047 1.53971 4.99987H0.996725C0.854532 5.00033 0.714073 5.03111 0.58472 5.09016C0.455367 5.14921 0.340094 5.23516 0.246593 5.34229C0.153092 5.44942 0.0835134 5.57526 0.0424998 5.71141C0.00148612 5.84756 -0.0100194 5.99089 0.00875083 6.13184L0.81273 12.1997C0.851037 12.4802 0.967946 12.7441 1.14994 12.961C1.33194 13.1778 1.5716 13.3388 1.8412 13.4251L0.959226 17.391C0.93045 17.5205 0.954293 17.6561 1.02551 17.7681C1.09672 17.88 1.20948 17.959 1.33897 17.9878C1.46845 18.0166 1.60407 17.9927 1.71598 17.9215C1.82789 17.8503 1.90692 17.7375 1.9357 17.608L2.84968 13.4996H6.43758L7.46305 17.6205C7.49011 17.729 7.55272 17.8253 7.64091 17.894C7.72909 17.9627 7.83776 17.9998 7.94954 17.9995C7.99035 17.9997 8.03101 17.9946 8.07054 17.9845C8.13426 17.9687 8.19424 17.9404 8.24705 17.9014C8.29986 17.8624 8.34446 17.8133 8.3783 17.757C8.41215 17.7008 8.43458 17.6384 8.44431 17.5734C8.45405 17.5085 8.45089 17.4423 8.43503 17.3785L7.46705 13.4996H7.50205C7.65418 13.5 7.80435 13.4654 7.94091 13.3983C8.07748 13.3313 8.19677 13.2337 8.28953 13.1132Z" fill="#1A1A1A"/>
</svg>
